# xmcd
#
# Track frame offsets: 
#        150
#        6739
#        21973
#        39768
#        51935
#        73118
#        89336
#        110178
#        134038
#        154604
#        172254
#        188357
#        208129
#        224914
#        247327
#        266617
#
# Disc length: 3719 seconds
#
# Revision: 1
# Processed by: cddbd v1.5.2PL0 Copyright (c) Steve Scherf et al.
# Submitted via: ExactAudioCopyFreeDBPlugin 1.0
#
DISCID=010e8510
DTITLE=Brother Ali - Us
DYEAR=2009
DGENRE=Hip-Hop
TTITLE0=Brothers and Sisters
TTITLE1=The Preacher
TTITLE2=Crown Jewel
TTITLE3=House Keys
TTITLE4=Fresh Air
TTITLE5=Tight Rope
TTITLE6=Breakin' Dawn
TTITLE7=The Travelers
TTITLE8=Babygirl
TTITLE9='Round Here
TTITLE10=Bad Mufucker Pt. II
TTITLE11=Best@It
TTITLE12=Games
TTITLE13=Slippin' Away
TTITLE14=You Say (Puppy Love)
TTITLE15=Us
EXTD=
EXTT0=
EXTT1=
EXTT2=
EXTT3=
EXTT4=
EXTT5=
EXTT6=
EXTT7=
EXTT8=
EXTT9=
EXTT10=
EXTT11=
EXTT12=
EXTT13=
EXTT14=
EXTT15=
PLAYORDER=
